<?xml version="1.0" encoding="UTF-8" standalone="no"?>
<svg
   xmlns:dc="http://purl.org/dc/elements/1.1/"
   xmlns:cc="http://creativecommons.org/ns#"
   xmlns:rdf="http://www.w3.org/1999/02/22-rdf-syntax-ns#"
   xmlns:svg="http://www.w3.org/2000/svg"
   xmlns="http://www.w3.org/2000/svg"
   xmlns:sodipodi="http://sodipodi.sourceforge.net/DTD/sodipodi-0.dtd"
   xmlns:inkscape="http://www.inkscape.org/namespaces/inkscape"
   width="61.893379mm"
   height="56.533932mm"
   viewBox="0 0 61.893379 56.533932"
   version="1.1"
   id="svg8"
   inkscape:version="0.92.4 (5da689c313, 2019-01-14)"
   sodipodi:docname="fruitsconfitslogo.svg">
  <sodipodi:namedview
     pagecolor="#ffffff"
     bordercolor="#666666"
     borderopacity="1"
     objecttolerance="10"
     gridtolerance="10"
     guidetolerance="10"
     inkscape:pageopacity="0"
     inkscape:pageshadow="2"
     inkscape:window-width="3840"
     inkscape:window-height="2068"
     id="namedview28"
     showgrid="false"
     inkscape:zoom="4"
     inkscape:cx="116.96387"
     inkscape:cy="106.83578"
     inkscape:window-x="-12"
     inkscape:window-y="-12"
     inkscape:window-maximized="1"
     inkscape:current-layer="svg8" />
  <defs
     id="defs2" />
  <metadata
     id="metadata5">
    <rdf:RDF>
      <cc:Work
         rdf:about="">
        <dc:format>image/svg+xml</dc:format>
        <dc:type
           rdf:resource="http://purl.org/dc/dcmitype/StillImage" />
      </cc:Work>
    </rdf:RDF>
  </metadata>
  <path
     inkscape:connector-curvature="0"
     id="path4529"
     d="M 19.841287,55.53393 11.149809,50.15854 5.20872,41.28579 1.127466,30.79687 7.04341,11.48889 23.395645,1.0344 41.123684,1 l 10.159235,9.87303 9.61046,16.74363 -3.99137,13.29994 -7.75063,8.62607 -12.315924,5.39465 z"
     style="fill:#ffe3f9;fill-opacity:1;stroke:none;stroke-width:10.71104527;stroke-linejoin:round;stroke-miterlimit:4;stroke-dasharray:none;stroke-opacity:1" />
  <path
     inkscape:connector-curvature="0"
     id="path4518"
     d="m 56.160799,29.70728 c 0,5.81807 -3.04756,13.55486 -7.22577,17.00761 -6.740207,5.56992 -9.958701,7.99551 -18.030315,7.99551 -6.745696,0 -12.017147,-2.72662 -16.076832,-7.05203 C 10.493073,43.03984 4.562517,38.59482 4.325715,31.29478 3.892845,17.95042 10.459947,14.03689 14.539941,9.72142 20.936315,2.95589 25.939915,3.38123 34.344297,3.38123 c 7.211705,0 10.277845,4.31528 14.879842,9.11423 4.29898,4.48296 6.93666,10.54244 6.93666,17.21182 z"
     style="fill:#ff6778;fill-opacity:1;stroke:none;stroke-width:8.96388721;stroke-linejoin:round;stroke-miterlimit:4;stroke-dasharray:none;stroke-opacity:1" />
  <path
     inkscape:connector-curvature="0"
     id="path4529-4-4"
     d="m 42.855329,20.009478 -2.00334,-0.33201 -2.33984,-1.08616 -2.42758,-1.47237 -3.37943,-3.10652 0.38492,-3.23847 2.03294,-1.1407105 3.01183,0.9814305 4.2313,2.15217 2.02372,2.45383 0.71873,1.922 -0.40969,1.68017 z"
     style="fill:#ffe3f9;fill-opacity:0.80338984;stroke:none;stroke-width:1.88483882;stroke-linejoin:round;stroke-miterlimit:4;stroke-dasharray:none;stroke-opacity:1" />
  <path
     inkscape:connector-curvature="0"
     id="path4529-4-4-0"
     d="m 42.605828,27.759637 -3.134716,-0.41926 -3.365255,-2.03639 -3.345048,-2.87787 -4.20872,-6.34687 2.001869,-7.2329303 3.807264,-2.84702 4.508332,1.69844 6.005969,4.0988803 2.268783,5.11521 0.360544,4.14324 -1.381926,3.78571 z"
     style="fill:#ffe3f9;fill-opacity:0.80338984;stroke:none;stroke-width:3.55337048;stroke-linejoin:round;stroke-miterlimit:4;stroke-dasharray:none;stroke-opacity:1" />
  <path
     inkscape:connector-curvature="0"
     id="path4529-4-3-7"
     d="m 49.099205,12.527456 -2.677231,6.84669 -1.862885,3.534939 -3.696903,2.669058 -4.624038,2.503969 -7.435383,-0.01137 -11.06267,-7.554965 -1.268497,-6.522232 11.112722,-9.2800396 6.418319,1.301519 8.824568,1.516468 3.445492,1.503832 z"
     style="fill:#ffe3f9;fill-opacity:0.42711864;stroke:none;stroke-width:6.98347664;stroke-linejoin:round;stroke-miterlimit:4;stroke-dasharray:none;stroke-opacity:1" />
  <g
     aria-label="Fruits"
     style="font-style:normal;font-variant:normal;font-weight:normal;font-stretch:normal;font-size:6.3499999px;line-height:1.25;font-family:Arial;-inkscape-font-specification:Arial;letter-spacing:0px;word-spacing:0px;fill:#ffe4fa;fill-opacity:0.93333333;stroke:none;stroke-width:0.26458332"
     id="text859">
    <path
       d="m 12.71447,28.787133 q 0,0.144694 -0.01447,0.24598 -0.0096,0.09646 -0.03859,0.15434 -0.02412,0.05788 -0.05788,0.08682 -0.03376,0.02894 -0.07717,0.02894 h -2.040186 v 1.67845 h 1.914784 q 0.04341,0 0.07717,0.02412 0.03376,0.02412 0.05788,0.08199 0.02894,0.05788 0.03858,0.15434 0.01447,0.09646 0.01447,0.241157 0,0.144694 -0.01447,0.241157 -0.0096,0.09646 -0.03858,0.159163 -0.02412,0.0627 -0.05788,0.09164 -0.03376,0.02412 -0.07717,0.02412 h -1.914784 v 2.324751 q 0,0.05305 -0.02894,0.09164 -0.02894,0.03859 -0.106108,0.06752 -0.07235,0.02412 -0.192926,0.03858 -0.120578,0.01447 -0.3086804,0.01447 -0.1832791,0 -0.3086806,-0.01447 -0.1205783,-0.01447 -0.1929253,-0.03858 -0.072347,-0.02894 -0.106109,-0.06752 -0.028939,-0.03859 -0.028939,-0.09164 v -5.657536 q 0,-0.212218 0.106109,-0.303857 0.1109321,-0.09646 0.2700955,-0.09646 h 2.9372886 q 0.04341,0 0.07717,0.02894 0.03376,0.02412 0.05788,0.08682 0.02894,0.05788 0.03859,0.159163 0.01447,0.101286 0.01447,0.24598 z"
       style="font-style:normal;font-variant:normal;font-weight:bold;font-stretch:normal;font-size:9.87777805px;font-family:Calibri;-inkscape-font-specification:'Calibri Bold';fill:#ffe4fa;fill-opacity:0.93333333;stroke-width:0.26458332"
       id="path883" />
    <path
       d="m 16.437929,30.441468 q 0,0.173633 -0.0096,0.284565 -0.0096,0.110932 -0.02894,0.173633 -0.01929,0.0627 -0.05305,0.08682 -0.02894,0.02412 -0.07717,0.02412 -0.03859,0 -0.08682,-0.01447 -0.04823,-0.01929 -0.110932,-0.03859 -0.05788,-0.01929 -0.130224,-0.03376 -0.07235,-0.01929 -0.159164,-0.01929 -0.101286,0 -0.202571,0.04341 -0.101286,0.03858 -0.212218,0.125402 -0.106109,0.08682 -0.226688,0.23151 -0.115755,0.144694 -0.250803,0.356912 v 2.681662 q 0,0.04823 -0.02894,0.08682 -0.02894,0.03376 -0.101286,0.05788 -0.06752,0.02412 -0.183279,0.03376 -0.115755,0.01447 -0.294211,0.01447 -0.178456,0 -0.294212,-0.01447 -0.115755,-0.0096 -0.188102,-0.03376 -0.06752,-0.02411 -0.09646,-0.05788 -0.02894,-0.03858 -0.02894,-0.08682 v -4.302235 q 0,-0.04823 0.02412,-0.08199 0.02412,-0.03858 0.08682,-0.0627 0.0627,-0.02412 0.159163,-0.03376 0.101286,-0.01447 0.250803,-0.01447 0.15434,0 0.255626,0.01447 0.101286,0.0096 0.154341,0.03376 0.05788,0.02412 0.08199,0.0627 0.02412,0.03376 0.02412,0.08199 v 0.535368 q 0.16881,-0.241157 0.318327,-0.395497 0.149517,-0.159163 0.284565,-0.250803 0.135048,-0.09164 0.270096,-0.125401 0.135047,-0.03859 0.270095,-0.03859 0.0627,0 0.135048,0.0096 0.07235,0.0048 0.149517,0.02411 0.07717,0.01447 0.135048,0.03859 0.05788,0.01929 0.08199,0.04341 0.02894,0.02411 0.03859,0.05305 0.01447,0.02894 0.02412,0.08199 0.0096,0.04823 0.01447,0.149518 0.0048,0.101285 0.0048,0.274918 z"
       style="font-style:normal;font-variant:normal;font-weight:bold;font-stretch:normal;font-size:9.87777805px;font-family:Calibri;-inkscape-font-specification:'Calibri Bold';fill:#ffe4fa;fill-opacity:0.93333333;stroke-width:0.26458332"
       id="path885" />
    <path
       d="m 21.265886,34.343383 q 0,0.04823 -0.02412,0.08682 -0.02411,0.03376 -0.08682,0.05788 -0.05788,0.02412 -0.159164,0.03376 -0.09646,0.01447 -0.245979,0.01447 -0.159164,0 -0.26045,-0.01447 -0.09646,-0.0096 -0.15434,-0.03376 -0.05788,-0.02411 -0.08199,-0.05788 -0.02412,-0.03858 -0.02412,-0.08682 v -0.496782 q -0.356912,0.38585 -0.728293,0.578776 -0.366558,0.192925 -0.762055,0.192925 -0.443729,0 -0.747586,-0.144694 -0.299034,-0.144694 -0.487137,-0.395497 -0.183279,-0.250803 -0.265272,-0.578776 -0.07717,-0.332796 -0.07717,-0.824756 v -2.633431 q 0,-0.04823 0.02412,-0.08199 0.02894,-0.03858 0.09646,-0.0627 0.07235,-0.02412 0.188103,-0.03376 0.120578,-0.01447 0.294211,-0.01447 0.178456,0 0.294211,0.01447 0.115755,0.0096 0.183279,0.03376 0.07235,0.02412 0.101286,0.0627 0.02894,0.03376 0.02894,0.08199 v 2.43086 q 0,0.337619 0.04341,0.516075 0.04341,0.178456 0.130224,0.30868 0.09164,0.125402 0.226688,0.197749 0.139871,0.06752 0.32315,0.06752 0.23151,0 0.46302,-0.16881 0.236334,-0.16881 0.501606,-0.49196 v -2.860118 q 0,-0.04823 0.02412,-0.08199 0.02894,-0.03858 0.09646,-0.0627 0.07235,-0.02412 0.188102,-0.03376 0.115755,-0.01447 0.294211,-0.01447 0.178456,0 0.294211,0.01447 0.115756,0.0096 0.183279,0.03376 0.06752,0.02412 0.09646,0.0627 0.02894,0.03376 0.02894,0.08199 z"
       style="font-style:normal;font-variant:normal;font-weight:bold;font-stretch:normal;font-size:9.87777805px;font-family:Calibri;-inkscape-font-specification:'Calibri Bold';fill:#ffe4fa;fill-opacity:0.93333333;stroke-width:0.26458332"
       id="path887" />
    <path
       d="m 23.706392,34.343383 q 0,0.04823 -0.02894,0.08682 -0.02894,0.03376 -0.101286,0.05788 -0.06752,0.02412 -0.183279,0.03376 -0.115755,0.01447 -0.294211,0.01447 -0.178456,0 -0.294211,-0.01447 -0.115755,-0.0096 -0.188102,-0.03376 -0.06752,-0.02411 -0.09646,-0.05788 -0.02894,-0.03858 -0.02894,-0.08682 v -4.292589 q 0,-0.04823 0.02894,-0.08199 0.02894,-0.03858 0.09646,-0.0627 0.07235,-0.02894 0.188102,-0.04341 0.115755,-0.01447 0.294211,-0.01447 0.178456,0 0.294211,0.01447 0.115755,0.01447 0.183279,0.04341 0.07235,0.02412 0.101286,0.0627 0.02894,0.03376 0.02894,0.08199 z m 0.09164,-5.758821 q 0,0.366558 -0.149518,0.506429 -0.149517,0.139871 -0.55466,0.139871 -0.409966,0 -0.55466,-0.135048 -0.139871,-0.135048 -0.139871,-0.487137 0,-0.366558 0.144694,-0.506429 0.149517,-0.144694 0.559483,-0.144694 0.405143,0 0.549837,0.139871 0.144695,0.135048 0.144695,0.487137 z"
       style="font-style:normal;font-variant:normal;font-weight:bold;font-stretch:normal;font-size:9.87777805px;font-family:Calibri;-inkscape-font-specification:'Calibri Bold';fill:#ffe4fa;fill-opacity:0.93333333;stroke-width:0.26458332"
       id="path889" />
    <path
       d="m 27.468436,33.918948 q 0,0.212218 -0.02894,0.327973 -0.02412,0.110932 -0.06752,0.159163 -0.04341,0.04341 -0.130225,0.08199 -0.08199,0.03376 -0.197748,0.05788 -0.110932,0.02894 -0.24598,0.04341 -0.130225,0.01447 -0.265273,0.01447 -0.361735,0 -0.627007,-0.09164 -0.265272,-0.09164 -0.438905,-0.279742 -0.173633,-0.192925 -0.255626,-0.482313 -0.08199,-0.289388 -0.08199,-0.684885 v -2.204172 h -0.516076 q -0.09164,0 -0.139871,-0.110932 -0.04823,-0.115755 -0.04823,-0.381028 0,-0.139871 0.0096,-0.236333 0.01447,-0.09646 0.03858,-0.149518 0.02412,-0.05788 0.05788,-0.08199 0.03858,-0.02412 0.08682,-0.02412 h 0.511253 v -0.959804 q 0,-0.04823 0.02411,-0.08682 0.02894,-0.03859 0.09646,-0.0627 0.07235,-0.02894 0.188102,-0.03859 0.120578,-0.01447 0.294211,-0.01447 0.178456,0 0.294211,0.01447 0.120579,0.0096 0.188103,0.03859 0.06752,0.02411 0.09646,0.0627 0.02894,0.03859 0.02894,0.08682 v 0.959804 h 0.935688 q 0.04823,0 0.08199,0.02412 0.03859,0.02412 0.0627,0.08199 0.02412,0.05306 0.03376,0.149518 0.01447,0.09646 0.01447,0.236333 0,0.265273 -0.04823,0.381028 -0.04823,0.110932 -0.139871,0.110932 h -0.940511 v 2.020893 q 0,0.352089 0.110932,0.530545 0.110932,0.173632 0.395497,0.173632 0.09646,0 0.173633,-0.01447 0.07717,-0.01929 0.135048,-0.03859 0.0627,-0.02412 0.101286,-0.03858 0.04341,-0.01929 0.07717,-0.01929 0.02894,0 0.05305,0.01929 0.02894,0.01447 0.04341,0.06752 0.01447,0.04823 0.02412,0.135048 0.01447,0.08682 0.01447,0.221864 z"
       style="font-style:normal;font-variant:normal;font-weight:bold;font-stretch:normal;font-size:9.87777805px;font-family:Calibri;-inkscape-font-specification:'Calibri Bold';fill:#ffe4fa;fill-opacity:0.93333333;stroke-width:0.26458332"
       id="path891" />
    <path
       d="m 31.38482,33.127954 q 0,0.366558 -0.13987,0.6463 -0.135048,0.279741 -0.385851,0.467844 -0.250803,0.188102 -0.593246,0.279741 -0.342442,0.09646 -0.742762,0.09646 -0.241157,0 -0.463021,-0.03858 -0.217041,-0.03376 -0.390674,-0.08682 -0.173633,-0.05788 -0.289388,-0.115756 -0.115755,-0.05788 -0.16881,-0.106109 -0.05305,-0.05305 -0.08199,-0.159163 -0.02894,-0.110932 -0.02894,-0.32315 0,-0.139871 0.0096,-0.221864 0.0096,-0.08682 0.02894,-0.135048 0.01929,-0.05305 0.04823,-0.06752 0.02894,-0.01929 0.07235,-0.01929 0.05305,0 0.15434,0.0627 0.106109,0.05788 0.260449,0.130225 0.154341,0.07235 0.356912,0.135048 0.207395,0.0627 0.467844,0.0627 0.163987,0 0.289388,-0.03376 0.130225,-0.03376 0.221864,-0.09646 0.09646,-0.0627 0.144694,-0.159163 0.04823,-0.09646 0.04823,-0.221865 0,-0.144694 -0.09164,-0.245979 -0.08682,-0.106109 -0.236333,-0.18328 -0.144694,-0.07717 -0.332797,-0.144694 -0.183279,-0.06752 -0.381027,-0.149517 -0.192926,-0.08199 -0.381028,-0.188102 -0.183279,-0.106109 -0.332796,-0.260449 -0.144694,-0.15434 -0.236334,-0.371381 -0.08682,-0.217041 -0.08682,-0.520899 0,-0.30868 0.120578,-0.564307 0.120579,-0.260449 0.347266,-0.443728 0.226687,-0.183279 0.549837,-0.284565 0.327973,-0.101286 0.733117,-0.101286 0.202571,0 0.390673,0.02894 0.192926,0.02894 0.347266,0.07235 0.15434,0.04341 0.260449,0.09646 0.106109,0.04823 0.149517,0.08682 0.04823,0.03376 0.06752,0.07235 0.01929,0.03376 0.02894,0.08682 0.0096,0.04823 0.01447,0.125401 0.0096,0.07235 0.0096,0.183279 0,0.130225 -0.0096,0.212218 -0.0048,0.08199 -0.02411,0.130225 -0.01447,0.04823 -0.04341,0.06752 -0.02894,0.01447 -0.06752,0.01447 -0.04341,0 -0.135048,-0.04823 -0.09164,-0.05306 -0.23151,-0.110932 -0.135048,-0.05788 -0.318327,-0.106109 -0.178456,-0.05306 -0.409967,-0.05306 -0.163986,0 -0.284565,0.03376 -0.120578,0.03376 -0.197748,0.09646 -0.07717,0.0627 -0.115755,0.149517 -0.03858,0.08199 -0.03858,0.178456 0,0.149517 0.09164,0.250803 0.09164,0.101286 0.241157,0.178456 0.149517,0.07717 0.337619,0.144694 0.192926,0.06752 0.385851,0.149517 0.197748,0.07717 0.385851,0.183279 0.192925,0.106109 0.342442,0.260449 0.149517,0.154341 0.241157,0.371382 0.09164,0.212218 0.09164,0.506429 z"
       style="font-style:normal;font-variant:normal;font-weight:bold;font-stretch:normal;font-size:9.87777805px;font-family:Calibri;-inkscape-font-specification:'Calibri Bold';fill:#ffe4fa;fill-opacity:0.93333333;stroke-width:0.26458332"
       id="path893" />
  </g>
  <g
     aria-label="Confits"
     style="font-style:normal;font-variant:normal;font-weight:normal;font-stretch:normal;font-size:6.3499999px;line-height:1.25;font-family:Arial;-inkscape-font-specification:Arial;letter-spacing:0px;word-spacing:0px;fill:#ffe4fa;fill-opacity:0.93333333;stroke:none;stroke-width:0.26458332"
     id="text859-3">
    <path
       d="m 13.515455,41.187062 q 0,0.120579 -0.0096,0.207395 -0.0048,0.08199 -0.01929,0.144694 -0.01447,0.05788 -0.03858,0.101286 -0.02412,0.04341 -0.07717,0.101286 -0.05306,0.05305 -0.207395,0.139871 -0.149517,0.08682 -0.371381,0.168809 -0.217041,0.07717 -0.501606,0.130225 -0.279742,0.05306 -0.607715,0.05306 -0.641477,0 -1.157552,-0.197749 -0.516075,-0.197748 -0.8778105,-0.588422 -0.361735,-0.395497 -0.5546604,-0.98392 -0.1929253,-0.588422 -0.1929253,-1.36977 0,-0.795817 0.2122179,-1.413178 0.2122178,-0.617361 0.5932454,-1.036974 0.3810279,-0.419612 0.9115719,-0.636653 0.535368,-0.217041 1.176845,-0.217041 0.260449,0 0.501606,0.04341 0.241157,0.04341 0.443728,0.115755 0.207395,0.06752 0.371382,0.159164 0.163986,0.09164 0.226687,0.159163 0.06752,0.0627 0.09164,0.106109 0.02412,0.04341 0.03859,0.110932 0.01447,0.06752 0.01929,0.159163 0.0096,0.09164 0.0096,0.226688 0,0.144694 -0.0096,0.24598 -0.0096,0.101285 -0.03376,0.163986 -0.02412,0.0627 -0.05788,0.09164 -0.03376,0.02894 -0.07717,0.02894 -0.07235,0 -0.183279,-0.08199 -0.110932,-0.08682 -0.289388,-0.188102 -0.173633,-0.106109 -0.419612,-0.188102 -0.241157,-0.08682 -0.578776,-0.08682 -0.371382,0 -0.665593,0.154341 -0.289388,0.149517 -0.496783,0.434082 -0.202571,0.279741 -0.30868,0.680061 -0.106109,0.400321 -0.106109,0.901927 0,0.549837 0.110932,0.95498 0.115755,0.40032 0.32315,0.660769 0.212218,0.26045 0.506429,0.390674 0.299034,0.125402 0.670415,0.125402 0.33762,0 0.5836,-0.07717 0.245979,-0.08199 0.419612,-0.178456 0.178456,-0.09646 0.289388,-0.173633 0.115756,-0.07717 0.178456,-0.07717 0.04823,0 0.07717,0.01929 0.02894,0.01929 0.04823,0.07717 0.01929,0.05788 0.02894,0.163987 0.0096,0.101286 0.0096,0.274918 z"
       style="font-style:normal;font-variant:normal;font-weight:bold;font-stretch:normal;font-size:9.87777805px;font-family:Calibri;-inkscape-font-specification:'Calibri Bold';fill:#ffe4fa;fill-opacity:0.93333333;stroke-width:0.26458332"
       id="path896" />
    <path
       d="m 18.705147,39.773884 q 0,0.549838 -0.144694,1.003212 -0.144694,0.453375 -0.438905,0.781348 -0.294211,0.327973 -0.73794,0.506429 -0.443728,0.178456 -1.036973,0.178456 -0.573953,0 -0.998389,-0.159164 -0.424436,-0.159163 -0.704178,-0.46302 -0.279741,-0.303858 -0.414789,-0.747586 -0.135048,-0.443729 -0.135048,-1.012858 0,-0.549838 0.144694,-1.003212 0.149517,-0.458198 0.443728,-0.781348 0.294212,-0.327973 0.733117,-0.506429 0.443728,-0.178456 1.036973,-0.178456 0.578777,0 1.003212,0.159164 0.424436,0.15434 0.699355,0.458197 0.279741,0.303858 0.414789,0.747586 0.135048,0.443728 0.135048,1.017681 z m -1.249192,0.04823 q 0,-0.318327 -0.05305,-0.5836 -0.04823,-0.270095 -0.16881,-0.467844 -0.120578,-0.197748 -0.32315,-0.30868 -0.197748,-0.110932 -0.501606,-0.110932 -0.270095,0 -0.472667,0.101286 -0.202571,0.09646 -0.332796,0.289388 -0.130225,0.188102 -0.197749,0.458197 -0.0627,0.265273 -0.0627,0.607715 0,0.318327 0.05305,0.588423 0.05305,0.265272 0.16881,0.46302 0.120578,0.197749 0.32315,0.308681 0.202571,0.106109 0.501606,0.106109 0.274918,0 0.47749,-0.09646 0.202572,-0.101286 0.332796,-0.289388 0.130225,-0.188102 0.192926,-0.453374 0.0627,-0.270096 0.0627,-0.612538 z"
       style="font-style:normal;font-variant:normal;font-weight:bold;font-stretch:normal;font-size:9.87777805px;font-family:Calibri;-inkscape-font-specification:'Calibri Bold';fill:#ffe4fa;fill-opacity:0.93333333;stroke-width:0.26458332"
       id="path898" />
    <path
       d="m 23.769437,41.96841 q 0,0.04823 -0.02894,0.08682 -0.02894,0.03376 -0.09646,0.05788 -0.06752,0.02412 -0.188102,0.03376 -0.115755,0.01447 -0.289388,0.01447 -0.178456,0 -0.299034,-0.01447 -0.115755,-0.0096 -0.183279,-0.03376 -0.06752,-0.02412 -0.09646,-0.05788 -0.02894,-0.03859 -0.02894,-0.08682 v -2.454975 q 0,-0.313504 -0.04823,-0.49196 -0.04341,-0.178456 -0.130225,-0.303857 -0.08682,-0.130225 -0.226687,-0.197749 -0.135048,-0.07235 -0.318327,-0.07235 -0.23151,0 -0.467844,0.16881 -0.236333,0.16881 -0.491959,0.49196 v 2.860118 q 0,0.04823 -0.02894,0.08682 -0.02894,0.03376 -0.101286,0.05788 -0.06752,0.02412 -0.183279,0.03376 -0.115755,0.01447 -0.294211,0.01447 -0.178456,0 -0.294211,-0.01447 -0.115756,-0.0096 -0.188103,-0.03376 -0.06752,-0.02412 -0.09646,-0.05788 -0.02894,-0.03859 -0.02894,-0.08682 v -4.302235 q 0,-0.04823 0.02412,-0.08199 0.02412,-0.03859 0.08682,-0.0627 0.0627,-0.02412 0.159163,-0.03376 0.101286,-0.01447 0.250803,-0.01447 0.154341,0 0.255626,0.01447 0.101286,0.0096 0.154341,0.03376 0.05788,0.02412 0.08199,0.0627 0.02412,0.03376 0.02412,0.08199 v 0.496783 q 0.356912,-0.385851 0.72347,-0.578776 0.371381,-0.192926 0.771701,-0.192926 0.438905,0 0.73794,0.144694 0.303857,0.144694 0.487136,0.395497 0.188102,0.24598 0.270096,0.578776 0.08199,0.332796 0.08199,0.80064 z"
       style="font-style:normal;font-variant:normal;font-weight:bold;font-stretch:normal;font-size:9.87777805px;font-family:Calibri;-inkscape-font-specification:'Calibri Bold';fill:#ffe4fa;fill-opacity:0.93333333;stroke-width:0.26458332"
       id="path900" />
    <path
       d="m 29.25334,36.219235 q 0,0.178456 -0.03376,0.303857 -0.02894,0.120578 -0.106109,0.197749 -0.07717,0.07235 -0.212218,0.106109 -0.130225,0.02894 -0.327973,0.02894 -0.197749,0 -0.332797,-0.02894 -0.135047,-0.03376 -0.217041,-0.106109 -0.07717,-0.07717 -0.110932,-0.197749 -0.02894,-0.125401 -0.02894,-0.303857 0,-0.173633 0.02894,-0.294212 0.03376,-0.120578 0.110932,-0.197748 0.08199,-0.07717 0.217041,-0.110932 0.135048,-0.03376 0.332797,-0.03376 0.197748,0 0.327973,0.03376 0.135047,0.03376 0.212218,0.110932 0.07717,0.07717 0.106109,0.197748 0.03376,0.120579 0.03376,0.294212 z m -0.09164,5.749175 q 0,0.04823 -0.02894,0.08682 -0.02894,0.03376 -0.09646,0.05788 -0.06752,0.02412 -0.188102,0.03376 -0.115755,0.01447 -0.289388,0.01447 -0.178456,0 -0.299034,-0.01447 -0.115755,-0.0096 -0.183279,-0.03376 -0.06752,-0.02412 -0.09646,-0.05788 -0.02894,-0.03859 -0.02894,-0.08682 v -3.482302 h -1.596457 v 3.482302 q 0,0.04823 -0.02894,0.08682 -0.02894,0.03376 -0.09646,0.05788 -0.06752,0.02412 -0.188103,0.03376 -0.115755,0.01447 -0.294211,0.01447 -0.173633,0 -0.294211,-0.01447 -0.115755,-0.0096 -0.188102,-0.03376 -0.06752,-0.02412 -0.09646,-0.05788 -0.02412,-0.03859 -0.02412,-0.08682 v -3.482302 h -0.54019 q -0.09164,0 -0.139871,-0.110933 -0.04341,-0.115755 -0.04341,-0.381027 0,-0.139871 0.0096,-0.236334 0.01447,-0.09646 0.03376,-0.149517 0.02412,-0.05788 0.05788,-0.08199 0.03859,-0.02412 0.08682,-0.02412 h 0.535367 v -0.381027 q 0,-0.438906 0.08682,-0.766879 0.09164,-0.327973 0.274919,-0.545014 0.183279,-0.221864 0.46302,-0.327973 0.279742,-0.110932 0.66077,-0.110932 0.106109,0 0.212218,0.0096 0.110932,0.0096 0.207394,0.02894 0.09646,0.01929 0.16881,0.04341 0.07235,0.02412 0.09646,0.05306 0.02894,0.02412 0.04341,0.05788 0.01929,0.03376 0.02894,0.08682 0.01447,0.05305 0.01929,0.139871 0.0048,0.08199 0.0048,0.207394 0,0.231511 -0.02894,0.327974 -0.02412,0.09164 -0.101286,0.09164 -0.02894,0 -0.06752,-0.0096 -0.03376,-0.0096 -0.08682,-0.02412 -0.04823,-0.01447 -0.115755,-0.02412 -0.06752,-0.01447 -0.168809,-0.01447 -0.255627,0 -0.371382,0.173633 -0.115755,0.173633 -0.115755,0.573953 v 0.409966 h 2.440506 q 0.183279,0 0.274918,0.08199 0.09164,0.07717 0.09164,0.250802 z"
       style="font-style:normal;font-variant:normal;font-weight:bold;font-stretch:normal;font-size:9.87777805px;font-family:Calibri;-inkscape-font-specification:'Calibri Bold';fill:#ffe4fa;fill-opacity:0.93333333;stroke-width:0.26458332"
       id="path902" />
    <path
       d="m 32.933392,41.543974 q 0,0.212218 -0.02894,0.327973 -0.02412,0.110933 -0.06752,0.159164 -0.04341,0.04341 -0.130225,0.08199 -0.08199,0.03376 -0.197748,0.05788 -0.110932,0.02894 -0.24598,0.04341 -0.130224,0.01447 -0.265272,0.01447 -0.361735,0 -0.627008,-0.09164 -0.265272,-0.09164 -0.438905,-0.279742 -0.173633,-0.192925 -0.255626,-0.482313 -0.08199,-0.289388 -0.08199,-0.684885 v -2.204172 h -0.516075 q -0.09164,0 -0.139871,-0.110933 -0.04823,-0.115755 -0.04823,-0.381027 0,-0.139871 0.0096,-0.236334 0.01447,-0.09646 0.03859,-0.149517 0.02411,-0.05788 0.05788,-0.08199 0.03858,-0.02412 0.08682,-0.02412 h 0.511252 v -0.959803 q 0,-0.04823 0.02412,-0.08682 0.02894,-0.03858 0.09646,-0.0627 0.07235,-0.02894 0.188102,-0.03859 0.120579,-0.01447 0.294212,-0.01447 0.178456,0 0.294211,0.01447 0.120578,0.0096 0.188102,0.03859 0.06752,0.02412 0.09646,0.0627 0.02894,0.03858 0.02894,0.08682 v 0.959803 h 0.935688 q 0.04823,0 0.08199,0.02412 0.03858,0.02412 0.0627,0.08199 0.02412,0.05306 0.03376,0.149517 0.01447,0.09646 0.01447,0.236334 0,0.265272 -0.04823,0.381027 -0.04823,0.110933 -0.13987,0.110933 h -0.940512 v 2.020893 q 0,0.352088 0.110933,0.530544 0.110932,0.173633 0.395497,0.173633 0.09646,0 0.173632,-0.01447 0.07717,-0.01929 0.135048,-0.03858 0.0627,-0.02412 0.101286,-0.03858 0.04341,-0.01929 0.07717,-0.01929 0.02894,0 0.05306,0.01929 0.02894,0.01447 0.04341,0.06752 0.01447,0.04823 0.02412,0.135048 0.01447,0.08682 0.01447,0.221864 z"
       style="font-style:normal;font-variant:normal;font-weight:bold;font-stretch:normal;font-size:9.87777805px;font-family:Calibri;-inkscape-font-specification:'Calibri Bold';fill:#ffe4fa;fill-opacity:0.93333333;stroke-width:0.26458332"
       id="path904" />
    <path
       d="m 36.849776,40.75298 q 0,0.366559 -0.139871,0.6463 -0.135048,0.279742 -0.385851,0.467844 -0.250803,0.188103 -0.593245,0.279742 -0.342443,0.09646 -0.742763,0.09646 -0.241157,0 -0.463021,-0.03859 -0.217041,-0.03376 -0.390674,-0.08682 -0.173632,-0.05788 -0.289388,-0.115755 -0.115755,-0.05788 -0.168809,-0.106109 -0.05305,-0.05305 -0.08199,-0.159163 -0.02894,-0.110932 -0.02894,-0.32315 0,-0.139871 0.0096,-0.221864 0.0096,-0.08682 0.02894,-0.135048 0.01929,-0.05306 0.04823,-0.06752 0.02894,-0.01929 0.07235,-0.01929 0.05306,0 0.15434,0.0627 0.106109,0.05788 0.26045,0.130225 0.15434,0.07235 0.356911,0.135048 0.207395,0.0627 0.467844,0.0627 0.163987,0 0.289388,-0.03376 0.130225,-0.03376 0.221865,-0.09646 0.09646,-0.0627 0.144694,-0.159164 0.04823,-0.09646 0.04823,-0.221864 0,-0.144694 -0.09164,-0.24598 -0.08682,-0.106109 -0.236333,-0.183279 -0.144694,-0.07717 -0.332796,-0.144694 -0.183279,-0.06752 -0.381028,-0.149517 -0.192925,-0.08199 -0.381028,-0.188102 -0.183279,-0.106109 -0.332796,-0.260449 -0.144694,-0.154341 -0.236333,-0.371382 -0.08682,-0.217041 -0.08682,-0.520898 0,-0.308681 0.120579,-0.564307 0.120578,-0.260449 0.347265,-0.443728 0.226688,-0.183279 0.549838,-0.284565 0.327973,-0.101286 0.733116,-0.101286 0.202571,0 0.390674,0.02894 0.192925,0.02894 0.347265,0.07235 0.154341,0.04341 0.26045,0.09646 0.106109,0.04823 0.149517,0.08682 0.04823,0.03376 0.06752,0.07235 0.01929,0.03376 0.02894,0.08682 0.0096,0.04823 0.01447,0.125402 0.0096,0.07235 0.0096,0.183279 0,0.130225 -0.0096,0.212218 -0.0048,0.08199 -0.02412,0.130225 -0.01447,0.04823 -0.04341,0.06752 -0.02894,0.01447 -0.06752,0.01447 -0.04341,0 -0.135048,-0.04823 -0.09164,-0.05305 -0.23151,-0.110932 -0.135048,-0.05788 -0.318327,-0.106109 -0.178456,-0.05305 -0.409966,-0.05305 -0.163987,0 -0.284565,0.03376 -0.120579,0.03376 -0.197749,0.09646 -0.07717,0.0627 -0.115755,0.149517 -0.03859,0.08199 -0.03859,0.178456 0,0.149517 0.09164,0.250803 0.09164,0.101285 0.241156,0.178456 0.149517,0.07717 0.33762,0.144694 0.192925,0.06752 0.38585,0.149517 0.197749,0.07717 0.385851,0.183279 0.192925,0.106109 0.342443,0.260449 0.149517,0.15434 0.241156,0.371381 0.09164,0.212218 0.09164,0.506429 z"
       style="font-style:normal;font-variant:normal;font-weight:bold;font-stretch:normal;font-size:9.87777805px;font-family:Calibri;-inkscape-font-specification:'Calibri Bold';fill:#ffe4fa;fill-opacity:0.93333333;stroke-width:0.26458332"
       id="path906" />
  </g>
  <g
     aria-label="Parser Combinator"
     style="font-style:normal;font-variant:normal;font-weight:normal;font-stretch:normal;font-size:6.3499999px;line-height:1.25;font-family:Arial;-inkscape-font-specification:Arial;letter-spacing:0px;word-spacing:0px;fill:#ffdcf2;fill-opacity:1;stroke:none;stroke-width:0.26458332"
     id="text911"
     transform="matrix(0.75260082,0,0,0.75260082,13.850666,-3.128008)">
    <path
       d="m 3.8864121,63.913153 q 0,0.170532 -0.058739,0.312643 -0.056844,0.14211 -0.1648479,0.244429 -0.1080037,0.10232 -0.2633775,0.159164 -0.1553738,0.05684 -0.3751709,0.05684 H 2.7059501 v 0.937927 q 0,0.01137 -0.00568,0.02084 -0.00568,0.0095 -0.018948,0.01516 -0.013264,0.0057 -0.036001,0.0095 -0.020843,0.0038 -0.054949,0.0038 -0.032212,0 -0.054949,-0.0038 -0.022738,-0.0038 -0.036001,-0.0095 -0.013264,-0.0057 -0.018948,-0.01516 -0.00568,-0.0095 -0.00568,-0.02084 V 63.32955 q 0,-0.06821 0.036001,-0.09285 0.036001,-0.02653 0.070108,-0.02653 h 0.4983331 q 0.073897,0 0.1440049,0.0076 0.070108,0.0057 0.1629531,0.02842 0.09474,0.02084 0.191375,0.08148 0.09853,0.05874 0.1667426,0.1459 0.068213,0.08527 0.1042142,0.197059 0.037896,0.109899 0.037896,0.242535 z m -0.2444295,0.02084 q 0,-0.159163 -0.062528,-0.269062 -0.062528,-0.111793 -0.153479,-0.164848 -0.089056,-0.05495 -0.1875854,-0.06821 -0.096635,-0.01516 -0.1837959,-0.01516 H 2.7059501 v 1.064879 h 0.3334853 q 0.1610582,0 0.269062,-0.03979 0.1080037,-0.04169 0.181901,-0.113688 0.073897,-0.072 0.1117934,-0.172427 0.039791,-0.102319 0.039791,-0.221692 z"
       style="font-style:normal;font-variant:normal;font-weight:300;font-stretch:normal;font-size:3.88055563px;font-family:Calibri;-inkscape-font-specification:'Calibri Light';letter-spacing:-0.06614583px;fill:#ffdcf2;fill-opacity:1;stroke-width:0.26458332"
       id="path913"
       inkscape:connector-curvature="0" />
    <path
       d="m 5.455481,65.62416 q 0,0.01895 -0.013264,0.03032 -0.011369,0.0095 -0.032212,0.01326 -0.018948,0.0057 -0.053054,0.0057 -0.032212,0 -0.054949,-0.0057 Q 5.279264,65.66394 5.266001,65.65448 5.254632,65.64311 5.254632,65.62416 v -0.191375 q -0.1155829,0.125057 -0.2557983,0.19327 -0.1383206,0.06821 -0.28801,0.06821 -0.134531,0 -0.2425347,-0.03411 -0.106109,-0.036 -0.1800063,-0.100424 -0.073897,-0.06632 -0.1136881,-0.159164 -0.039791,-0.09284 -0.039791,-0.208428 0,-0.14211 0.058739,-0.246324 0.058739,-0.106109 0.1667426,-0.176217 0.1080038,-0.07011 0.259588,-0.104214 0.1515842,-0.036 0.3372748,-0.036 h 0.2728516 v -0.147795 q 0,-0.109899 -0.022738,-0.19327 -0.022738,-0.08527 -0.073897,-0.14211 -0.05116,-0.05684 -0.1326362,-0.08527 -0.081476,-0.02842 -0.1989543,-0.02842 -0.1136881,0 -0.2046387,0.02842 -0.09095,0.02653 -0.1591634,0.06063 -0.068213,0.03411 -0.1136881,0.06253 -0.043581,0.02653 -0.062528,0.02653 -0.011369,0 -0.020843,-0.0038 -0.00947,-0.0038 -0.017053,-0.01326 -0.00568,-0.01137 -0.00947,-0.02653 -0.00189,-0.01705 -0.00189,-0.03979 0,-0.03979 0.00568,-0.06253 0.00568,-0.02463 0.028422,-0.04737 0.024632,-0.02463 0.085266,-0.05684 0.060634,-0.03221 0.1383206,-0.05874 0.079582,-0.02842 0.1705322,-0.04547 0.09095,-0.01705 0.181901,-0.01705 0.1762167,0 0.297484,0.04358 0.1212674,0.04169 0.1951647,0.121268 0.075792,0.07958 0.1080037,0.197059 0.032212,0.115583 0.032212,0.263378 z M 5.2299995,64.815079 H 4.9173571 q -0.1364258,0 -0.2387452,0.02463 -0.1023193,0.02463 -0.1705322,0.072 -0.068213,0.04737 -0.1023193,0.113688 -0.032212,0.06632 -0.032212,0.151585 0,0.147794 0.092845,0.23685 0.09474,0.08716 0.2652723,0.08716 0.134531,0 0.2501139,-0.06821 0.1174778,-0.07011 0.2482192,-0.214113 z"
       style="font-style:normal;font-variant:normal;font-weight:300;font-stretch:normal;font-size:3.88055563px;font-family:Calibri;-inkscape-font-specification:'Calibri Light';letter-spacing:-0.06614583px;fill:#ffdcf2;fill-opacity:1;stroke-width:0.26458332"
       id="path915"
       inkscape:connector-curvature="0" />
    <path
       d="m 6.965811,63.996525 q 0,0.02842 -0.00189,0.04926 -0.00189,0.01895 -0.00758,0.03221 -0.00379,0.01137 -0.011369,0.01895 -0.00568,0.0057 -0.017053,0.0057 -0.017053,0 -0.039791,-0.0076 -0.022738,-0.0095 -0.053055,-0.01895 -0.030317,-0.0095 -0.066318,-0.01705 -0.036001,-0.0095 -0.079582,-0.0095 -0.05116,0 -0.1004245,0.02274 -0.049265,0.02084 -0.1042142,0.07011 -0.053054,0.04737 -0.1136881,0.126952 -0.058739,0.07958 -0.1307414,0.195165 v 1.159619 q 0,0.01137 -0.00568,0.02084 -0.00568,0.0095 -0.018948,0.01516 -0.011369,0.0057 -0.034107,0.0095 -0.020843,0.0038 -0.054949,0.0038 -0.032212,0 -0.054949,-0.0038 -0.020843,-0.0038 -0.034107,-0.0095 -0.013264,-0.0057 -0.018948,-0.01516 -0.00379,-0.0095 -0.00379,-0.02084 v -1.714796 q 0,-0.01137 0.00379,-0.02084 0.00568,-0.0095 0.018948,-0.01516 0.013264,-0.0076 0.032212,-0.0095 0.020843,-0.0038 0.053054,-0.0038 0.032212,0 0.053055,0.0038 0.020843,0.0019 0.032212,0.0095 0.011369,0.0057 0.015158,0.01516 0.00568,0.0095 0.00568,0.02084 v 0.270956 q 0.073897,-0.108003 0.1364258,-0.174321 0.062528,-0.06632 0.1193725,-0.10232 0.056844,-0.0379 0.1098986,-0.05116 0.054949,-0.01326 0.1117933,-0.01326 0.024633,0 0.056844,0.0038 0.032212,0.0019 0.068213,0.0095 0.037896,0.0076 0.066318,0.01895 0.030317,0.0095 0.041686,0.01895 0.011369,0.0076 0.015159,0.01516 0.00379,0.0057 0.00568,0.01705 0.00379,0.0095 0.00379,0.02842 0.00189,0.01705 0.00189,0.04548 z"
       style="font-style:normal;font-variant:normal;font-weight:300;font-stretch:normal;font-size:3.88055563px;font-family:Calibri;-inkscape-font-specification:'Calibri Light';letter-spacing:-0.06614583px;fill:#ffdcf2;fill-opacity:1;stroke-width:0.26458332"
       id="path917"
       inkscape:connector-curvature="0" />
    <path
       d="m 8.2222372,65.167513 q 0,0.123162 -0.045475,0.221691 -0.045475,0.09663 -0.1307414,0.164848 -0.083371,0.06821 -0.2008491,0.104214 -0.1174777,0.036 -0.2595879,0.036 -0.089056,0 -0.1686374,-0.01516 -0.079582,-0.01326 -0.144005,-0.03411 -0.064423,-0.02274 -0.1098986,-0.04737 -0.04358,-0.02463 -0.064423,-0.04358 -0.020843,-0.01895 -0.030317,-0.04737 -0.00947,-0.02842 -0.00947,-0.07579 0,-0.02463 0.00379,-0.04358 0.00379,-0.01895 0.00947,-0.03221 0.00568,-0.01326 0.015158,-0.01895 0.00947,-0.0076 0.020843,-0.0076 0.020843,0 0.060634,0.02653 0.039791,0.02653 0.09853,0.05874 0.060634,0.03032 0.1421102,0.05684 0.083371,0.02653 0.191375,0.02653 0.087161,0 0.1591634,-0.01895 0.072002,-0.01895 0.125057,-0.05684 0.053055,-0.0379 0.081476,-0.09663 0.030317,-0.06063 0.030317,-0.140215 0,-0.07958 -0.037896,-0.134531 -0.037896,-0.05495 -0.1004245,-0.09474 -0.060634,-0.04169 -0.1402154,-0.072 -0.077687,-0.03221 -0.1610582,-0.06442 -0.081477,-0.03411 -0.1610583,-0.0739 -0.077687,-0.03979 -0.1402154,-0.09664 -0.060634,-0.05684 -0.09853,-0.136426 -0.037896,-0.07958 -0.037896,-0.191375 0,-0.08906 0.034106,-0.174322 0.034106,-0.08716 0.1042142,-0.155374 0.072002,-0.06821 0.181901,-0.109898 0.1117933,-0.04169 0.2633776,-0.04169 0.064423,0 0.1269517,0.01137 0.064423,0.0095 0.115583,0.02653 0.053055,0.01705 0.09095,0.0379 0.037896,0.01895 0.056844,0.03411 0.020843,0.01516 0.026527,0.02653 0.00758,0.0095 0.00947,0.02084 0.00379,0.01137 0.00568,0.02842 0.00189,0.01516 0.00189,0.0379 0,0.02274 -0.00379,0.04169 -0.00189,0.01705 -0.00758,0.03032 -0.00568,0.01326 -0.015158,0.02084 -0.00758,0.0057 -0.018948,0.0057 -0.015158,0 -0.045475,-0.02084 -0.030317,-0.02084 -0.079582,-0.04548 -0.049265,-0.02463 -0.1174778,-0.04548 -0.068213,-0.02084 -0.1572686,-0.02084 -0.089056,0 -0.1572686,0.02084 -0.066318,0.02084 -0.1098985,0.05874 -0.043581,0.0379 -0.066318,0.08906 -0.020843,0.05116 -0.020843,0.111793 0,0.08337 0.037896,0.140215 0.037896,0.05684 0.1004245,0.09853 0.062528,0.04169 0.1421102,0.0739 0.079582,0.03221 0.1610583,0.06442 0.083371,0.03221 0.162953,0.072 0.079582,0.0379 0.1421102,0.09284 0.062528,0.05495 0.1004245,0.132637 0.037896,0.07579 0.037896,0.183796 z"
       style="font-style:normal;font-variant:normal;font-weight:300;font-stretch:normal;font-size:3.88055563px;font-family:Calibri;-inkscape-font-specification:'Calibri Light';letter-spacing:-0.06614583px;fill:#ffdcf2;fill-opacity:1;stroke-width:0.26458332"
       id="path919"
       inkscape:connector-curvature="0" />
    <path
       d="m 10.047104,64.678653 q 0,0.06821 -0.036,0.09474 -0.036001,0.02463 -0.070108,0.02463 H 8.7719022 q 0,0.159163 0.030317,0.28801 0.032212,0.128847 0.1042141,0.221692 0.072002,0.09095 0.1875855,0.140215 0.1155829,0.04927 0.2842204,0.04927 0.1193725,0 0.2141127,-0.02084 0.09474,-0.02084 0.162953,-0.04547 0.070108,-0.02653 0.1136881,-0.04737 0.045475,-0.02084 0.064423,-0.02084 0.011369,0 0.020843,0.0057 0.00947,0.0057 0.015159,0.01895 0.00568,0.01137 0.00758,0.03032 0.00379,0.01895 0.00379,0.04737 0,0.01326 -0.00189,0.02653 -0.00189,0.01137 -0.00568,0.02274 -0.00189,0.0095 -0.00758,0.01895 -0.00568,0.0095 -0.015159,0.01895 -0.00947,0.0095 -0.058739,0.03411 -0.049265,0.02274 -0.1288466,0.04737 -0.079582,0.02274 -0.1856907,0.04169 -0.1042141,0.01895 -0.2254815,0.01895 -0.1989542,0 -0.3524332,-0.05874 Q 8.8457995,65.574895 8.7415854,65.459312 8.6373713,65.341834 8.582422,65.169407 8.5293675,64.99698 8.5293675,64.769604 q 0,-0.217902 0.054949,-0.390329 0.056844,-0.172427 0.1610582,-0.2918 0.1042142,-0.121267 0.2501139,-0.183796 0.1477946,-0.06442 0.3278009,-0.06442 0.1932698,0 0.3296956,0.06442 0.1364258,0.06442 0.2235867,0.174322 0.089056,0.108004 0.1288472,0.252009 0.04168,0.144005 0.04168,0.303168 z m -0.2330603,-0.06632 q 0.00568,-0.272851 -0.125057,-0.42633 -0.1307414,-0.153479 -0.3808553,-0.153479 -0.1288466,0 -0.2273763,0.04926 -0.096635,0.04737 -0.1648479,0.126951 -0.066318,0.07958 -0.1023193,0.185691 -0.036001,0.104214 -0.041686,0.217902 z"
       style="font-style:normal;font-variant:normal;font-weight:300;font-stretch:normal;font-size:3.88055563px;font-family:Calibri;-inkscape-font-specification:'Calibri Light';letter-spacing:-0.06614583px;fill:#ffdcf2;fill-opacity:1;stroke-width:0.26458332"
       id="path921"
       inkscape:connector-curvature="0" />
    <path
       d="m 11.451325,63.996525 q 0,0.02842 -0.0019,0.04926 -0.0019,0.01895 -0.0076,0.03221 -0.0038,0.01137 -0.01137,0.01895 -0.0057,0.0057 -0.01705,0.0057 -0.01705,0 -0.03979,-0.0076 -0.02274,-0.0095 -0.05305,-0.01895 -0.03032,-0.0095 -0.06632,-0.01705 -0.036,-0.0095 -0.07958,-0.0095 -0.05116,0 -0.100425,0.02274 -0.04926,0.02084 -0.104214,0.07011 -0.05305,0.04737 -0.113688,0.126952 -0.05874,0.07958 -0.130741,0.195165 v 1.159619 q 0,0.01137 -0.0057,0.02084 -0.0057,0.0095 -0.01895,0.01516 -0.01137,0.0057 -0.03411,0.0095 -0.02084,0.0038 -0.05495,0.0038 -0.03221,0 -0.05495,-0.0038 -0.02084,-0.0038 -0.03411,-0.0095 -0.01326,-0.0057 -0.01895,-0.01516 -0.0038,-0.0095 -0.0038,-0.02084 v -1.714796 q 0,-0.01137 0.0038,-0.02084 0.0057,-0.0095 0.01895,-0.01516 0.01326,-0.0076 0.03221,-0.0095 0.02084,-0.0038 0.05305,-0.0038 0.03221,0 0.05305,0.0038 0.02084,0.0019 0.03221,0.0095 0.01137,0.0057 0.01516,0.01516 0.0057,0.0095 0.0057,0.02084 v 0.270956 q 0.0739,-0.108003 0.136426,-0.174321 0.06253,-0.06632 0.119372,-0.10232 0.05684,-0.0379 0.109899,-0.05116 0.05495,-0.01326 0.111793,-0.01326 0.02463,0 0.05684,0.0038 0.03221,0.0019 0.06821,0.0095 0.0379,0.0076 0.06632,0.01895 0.03032,0.0095 0.04169,0.01895 0.01137,0.0076 0.01516,0.01516 0.0038,0.0057 0.0057,0.01705 0.0038,0.0095 0.0038,0.02842 0.0019,0.01705 0.0019,0.04548 z"
       style="font-style:normal;font-variant:normal;font-weight:300;font-stretch:normal;font-size:3.88055563px;font-family:Calibri;-inkscape-font-specification:'Calibri Light';letter-spacing:-0.06614583px;fill:#ffdcf2;fill-opacity:1;stroke-width:0.26458332"
       id="path923"
       inkscape:connector-curvature="0" />
    <path
       d="m 14.235135,65.328571 q 0,0.02084 -0.0019,0.0379 -0.0019,0.01705 -0.0057,0.03032 -0.0038,0.01326 -0.01137,0.02463 -0.0057,0.01137 -0.02463,0.03032 -0.01705,0.01705 -0.07769,0.05874 -0.06063,0.03979 -0.153479,0.07958 -0.09095,0.03979 -0.210323,0.06821 -0.119372,0.02842 -0.263377,0.02842 -0.231166,0 -0.418752,-0.07958 -0.187585,-0.08148 -0.320221,-0.236851 -0.130742,-0.155373 -0.202744,-0.38275 -0.07011,-0.227376 -0.07011,-0.519176 0,-0.299378 0.07579,-0.536229 0.07579,-0.238745 0.212218,-0.403593 0.138321,-0.166742 0.329696,-0.253903 0.19327,-0.08906 0.42633,-0.08906 0.109899,0 0.212218,0.02084 0.104214,0.02084 0.191375,0.05305 0.08716,0.03221 0.155374,0.0739 0.07011,0.04169 0.09474,0.06821 0.02653,0.02463 0.03221,0.036 0.0076,0.01137 0.01137,0.02653 0.0038,0.01326 0.0057,0.03221 0.0019,0.01705 0.0019,0.03979 0,0.02653 -0.0038,0.04737 -0.0019,0.01895 -0.0095,0.03411 -0.0057,0.01326 -0.01516,0.02084 -0.0095,0.0076 -0.02274,0.0076 -0.02653,0 -0.07579,-0.0379 -0.04737,-0.03979 -0.126952,-0.08716 -0.07769,-0.04737 -0.191375,-0.08527 -0.113688,-0.03979 -0.270956,-0.03979 -0.172427,0 -0.316432,0.07011 -0.144005,0.06821 -0.24822,0.202744 -0.102319,0.134531 -0.161058,0.33159 -0.05684,0.19706 -0.05684,0.452858 0,0.244429 0.05305,0.43391 0.05305,0.18948 0.153479,0.320221 0.100424,0.128847 0.248219,0.19706 0.147794,0.06821 0.33538,0.06821 0.153479,0 0.267167,-0.0379 0.115583,-0.03979 0.197059,-0.08716 0.08148,-0.04737 0.132637,-0.08527 0.05305,-0.03979 0.08148,-0.03979 0.01137,0 0.01895,0.0057 0.0076,0.0038 0.01137,0.01705 0.0057,0.01137 0.0076,0.03221 0.0038,0.02084 0.0038,0.05116 z"
       style="font-style:normal;font-variant:normal;font-weight:300;font-stretch:normal;font-size:3.88055563px;font-family:Calibri;-inkscape-font-specification:'Calibri Light';letter-spacing:-0.06614583px;fill:#ffdcf2;fill-opacity:1;stroke-width:0.26458332"
       id="path925"
       inkscape:connector-curvature="0" />
    <path
       d="m 16.116846,64.748761 q 0,0.204639 -0.05305,0.377066 -0.05306,0.172427 -0.159164,0.299379 -0.104214,0.126951 -0.261482,0.198954 -0.157269,0.07011 -0.365697,0.07011 -0.200849,0 -0.352434,-0.06253 -0.149689,-0.06442 -0.252008,-0.181901 -0.100425,-0.119372 -0.151584,-0.28801 -0.04927,-0.168637 -0.04927,-0.380855 0,-0.204639 0.05116,-0.377066 0.05305,-0.172427 0.157269,-0.297484 0.106109,-0.126952 0.263378,-0.197059 0.157268,-0.07011 0.367591,-0.07011 0.200849,0 0.350539,0.06253 0.151584,0.06253 0.252008,0.181901 0.100425,0.117478 0.151585,0.286116 0.05116,0.168637 0.05116,0.37896 z m -0.238745,0.02084 q 0,-0.1459 -0.02842,-0.278536 -0.02842,-0.132636 -0.09474,-0.233061 -0.06632,-0.102319 -0.178111,-0.161058 -0.111794,-0.06063 -0.278536,-0.06063 -0.153479,0 -0.265273,0.05495 -0.111793,0.05495 -0.183796,0.153479 -0.07011,0.09664 -0.104214,0.229271 -0.03411,0.132636 -0.03411,0.286115 0,0.147795 0.02842,0.282326 0.02842,0.132636 0.09474,0.23306 0.06632,0.100425 0.178111,0.159164 0.111794,0.05874 0.278536,0.05874 0.153479,0 0.265273,-0.05495 0.111793,-0.05495 0.181901,-0.151584 0.072,-0.09663 0.106109,-0.229271 0.03411,-0.132636 0.03411,-0.28801 z"
       style="font-style:normal;font-variant:normal;font-weight:300;font-stretch:normal;font-size:3.88055563px;font-family:Calibri;-inkscape-font-specification:'Calibri Light';letter-spacing:-0.06614583px;fill:#ffdcf2;fill-opacity:1;stroke-width:0.26458332"
       id="path927"
       inkscape:connector-curvature="0" />
    <path
       d="m 19.000908,65.62416 q 0,0.01137 -0.0057,0.02084 -0.0057,0.0095 -0.01895,0.01516 -0.01137,0.0057 -0.03411,0.0095 -0.02084,0.0038 -0.05305,0.0038 -0.03411,0 -0.05684,-0.0038 -0.02084,-0.0038 -0.03411,-0.0095 -0.01326,-0.0057 -0.01895,-0.01516 -0.0038,-0.0095 -0.0038,-0.02084 v -1.055405 q 0,-0.121267 -0.02274,-0.219797 -0.02084,-0.100425 -0.06821,-0.170532 -0.04547,-0.072 -0.117478,-0.109899 -0.07011,-0.03979 -0.166742,-0.03979 -0.119373,0 -0.242535,0.09285 -0.121267,0.09285 -0.267167,0.272852 v 1.229727 q 0,0.01137 -0.0057,0.02084 -0.0057,0.0095 -0.01895,0.01516 -0.01137,0.0057 -0.03411,0.0095 -0.02084,0.0038 -0.05306,0.0038 -0.03221,0 -0.05495,-0.0038 -0.02084,-0.0038 -0.03411,-0.0095 -0.01326,-0.0057 -0.01895,-0.01516 -0.0038,-0.0095 -0.0038,-0.02084 v -1.055405 q 0,-0.121267 -0.02274,-0.219797 -0.02274,-0.100425 -0.07011,-0.170532 -0.04548,-0.072 -0.117478,-0.109899 -0.07011,-0.03979 -0.166743,-0.03979 -0.119372,0 -0.242534,0.09285 -0.121268,0.09285 -0.265273,0.272852 v 1.229727 q 0,0.01137 -0.0057,0.02084 -0.0057,0.0095 -0.01895,0.01516 -0.01137,0.0057 -0.03411,0.0095 -0.02084,0.0038 -0.05495,0.0038 -0.03221,0 -0.05495,-0.0038 -0.02084,-0.0038 -0.03411,-0.0095 -0.01326,-0.0057 -0.01895,-0.01516 -0.0038,-0.0095 -0.0038,-0.02084 v -1.714796 q 0,-0.01137 0.0038,-0.02084 0.0057,-0.0095 0.01895,-0.01516 0.01326,-0.0076 0.03221,-0.0095 0.02084,-0.0038 0.05306,-0.0038 0.03221,0 0.05305,0.0038 0.02084,0.0019 0.03221,0.0095 0.01137,0.0057 0.01516,0.01516 0.0057,0.0095 0.0057,0.02084 v 0.242534 q 0.147795,-0.164847 0.280431,-0.238745 0.132636,-0.0739 0.263378,-0.0739 0.108004,0 0.191375,0.02653 0.08527,0.02463 0.149689,0.072 0.06442,0.04547 0.109899,0.109898 0.04547,0.06442 0.0739,0.14211 0.08906,-0.09853 0.166743,-0.164847 0.07958,-0.06821 0.149689,-0.108004 0.072,-0.04169 0.138321,-0.05874 0.06632,-0.01895 0.130741,-0.01895 0.161058,0 0.270957,0.05684 0.111793,0.05684 0.178111,0.153479 0.06821,0.09664 0.09663,0.225482 0.03032,0.128846 0.03032,0.272851 z"
       style="font-style:normal;font-variant:normal;font-weight:300;font-stretch:normal;font-size:3.88055563px;font-family:Calibri;-inkscape-font-specification:'Calibri Light';letter-spacing:-0.06614583px;fill:#ffdcf2;fill-opacity:1;stroke-width:0.26458332"
       id="path929"
       inkscape:connector-curvature="0" />
    <path
       d="m 21.05694,64.744972 q 0,0.219797 -0.04737,0.396013 -0.04737,0.174322 -0.14211,0.297484 -0.09285,0.123162 -0.231166,0.189481 -0.136426,0.06632 -0.314537,0.06632 -0.07958,0 -0.147795,-0.01705 -0.06632,-0.01516 -0.130741,-0.05116 -0.06442,-0.036 -0.132637,-0.09095 -0.06632,-0.05495 -0.144005,-0.132636 v 0.221692 q 0,0.01326 -0.0057,0.02274 -0.0057,0.0095 -0.01895,0.01516 -0.01326,0.0057 -0.03221,0.0076 -0.01895,0.0038 -0.04737,0.0038 -0.02842,0 -0.04927,-0.0038 -0.01895,-0.0019 -0.03221,-0.0076 -0.01137,-0.0057 -0.01705,-0.01516 -0.0038,-0.0095 -0.0038,-0.02274 v -2.554194 q 0,-0.01137 0.0038,-0.02084 0.0057,-0.0095 0.01895,-0.01516 0.01326,-0.0076 0.03411,-0.0095 0.02274,-0.0038 0.05495,-0.0038 0.03411,0 0.05495,0.0038 0.02274,0.0019 0.03411,0.0095 0.01326,0.0057 0.01895,0.01516 0.0057,0.0095 0.0057,0.02084 v 1.070564 q 0.08148,-0.08527 0.155374,-0.142111 0.0739,-0.05874 0.144005,-0.09284 0.07011,-0.036 0.138321,-0.05116 0.07011,-0.01516 0.144005,-0.01516 0.185691,0 0.316432,0.072 0.132636,0.072 0.214113,0.195165 0.08337,0.123162 0.121267,0.28801 0.0379,0.164848 0.0379,0.350539 z m -0.23685,0.036 q 0,-0.144005 -0.02274,-0.278536 -0.02274,-0.134531 -0.07769,-0.238745 -0.05495,-0.104214 -0.1459,-0.166743 -0.09095,-0.06442 -0.227376,-0.06442 -0.06632,0 -0.132636,0.01895 -0.06442,0.01895 -0.132636,0.06253 -0.06821,0.04358 -0.142111,0.113688 -0.072,0.06821 -0.153479,0.170533 v 0.746552 q 0.142111,0.172427 0.272852,0.265272 0.132636,0.09095 0.274746,0.09095 0.130742,0 0.223587,-0.06253 0.09285,-0.06442 0.151584,-0.166742 0.05874,-0.10232 0.08527,-0.231166 0.02653,-0.128847 0.02653,-0.259588 z"
       style="font-style:normal;font-variant:normal;font-weight:300;font-stretch:normal;font-size:3.88055563px;font-family:Calibri;-inkscape-font-specification:'Calibri Light';letter-spacing:-0.06614583px;fill:#ffdcf2;fill-opacity:1;stroke-width:0.26458332"
       id="path931"
       inkscape:connector-curvature="0" />
    <path
       d="m 21.735452,65.62416 q 0,0.01137 -0.0057,0.02084 -0.0057,0.0095 -0.01895,0.01516 -0.01137,0.0057 -0.03411,0.0095 -0.02084,0.0038 -0.05495,0.0038 -0.03221,0 -0.05495,-0.0038 -0.02084,-0.0038 -0.03411,-0.0095 -0.01326,-0.0057 -0.01895,-0.01516 -0.0038,-0.0095 -0.0038,-0.02084 v -1.714796 q 0,-0.01137 0.0038,-0.02084 0.0057,-0.0095 0.01895,-0.01516 0.01326,-0.0076 0.03411,-0.0095 0.02274,-0.0038 0.05495,-0.0038 0.03411,0 0.05495,0.0038 0.02274,0.0019 0.03411,0.0095 0.01326,0.0057 0.01895,0.01516 0.0057,0.0095 0.0057,0.02084 z m 0.03411,-2.292711 q 0,0.09095 -0.03221,0.123162 -0.03221,0.03221 -0.117478,0.03221 -0.08337,0 -0.115583,-0.03032 -0.03032,-0.03221 -0.03032,-0.123162 0,-0.09095 0.03221,-0.123163 0.03221,-0.03221 0.117478,-0.03221 0.08337,0 0.113688,0.03221 0.03221,0.03032 0.03221,0.121268 z"
       style="font-style:normal;font-variant:normal;font-weight:300;font-stretch:normal;font-size:3.88055563px;font-family:Calibri;-inkscape-font-specification:'Calibri Light';letter-spacing:-0.06614583px;fill:#ffdcf2;fill-opacity:1;stroke-width:0.26458332"
       id="path933"
       inkscape:connector-curvature="0" />
    <path
       d="m 23.691062,65.62416 q 0,0.01137 -0.0057,0.02084 -0.0057,0.0095 -0.01895,0.01516 -0.01137,0.0057 -0.03411,0.0095 -0.02084,0.0038 -0.05306,0.0038 -0.03411,0 -0.05684,-0.0038 -0.02084,-0.0038 -0.03411,-0.0095 -0.01137,-0.0057 -0.01705,-0.01516 -0.0057,-0.0095 -0.0057,-0.02084 v -1.017509 q 0,-0.159163 -0.02463,-0.257693 -0.02463,-0.100425 -0.0739,-0.170532 -0.04926,-0.072 -0.126951,-0.109899 -0.07579,-0.03979 -0.178112,-0.03979 -0.130741,0 -0.261483,0.09285 -0.130741,0.09285 -0.274746,0.272852 v 1.229727 q 0,0.01137 -0.0057,0.02084 -0.0057,0.0095 -0.01895,0.01516 -0.01137,0.0057 -0.03411,0.0095 -0.02084,0.0038 -0.05495,0.0038 -0.03221,0 -0.05495,-0.0038 -0.02084,-0.0038 -0.03411,-0.0095 -0.01326,-0.0057 -0.01895,-0.01516 -0.0038,-0.0095 -0.0038,-0.02084 V 63.90937 q 0,-0.01137 0.0038,-0.02084 0.0057,-0.0095 0.01895,-0.01516 0.01326,-0.0076 0.03221,-0.0095 0.02084,-0.0038 0.05305,-0.0038 0.03221,0 0.05305,0.0038 0.02084,0.0019 0.03221,0.0095 0.01137,0.0057 0.01516,0.01516 0.0057,0.0095 0.0057,0.02084 v 0.242534 q 0.147795,-0.164847 0.289905,-0.238745 0.14211,-0.0739 0.282326,-0.0739 0.168637,0 0.28422,0.05684 0.115583,0.05684 0.185691,0.153479 0.072,0.09664 0.102319,0.225482 0.03221,0.128846 0.03221,0.310747 z"
       style="font-style:normal;font-variant:normal;font-weight:300;font-stretch:normal;font-size:3.88055563px;font-family:Calibri;-inkscape-font-specification:'Calibri Light';letter-spacing:-0.06614583px;fill:#ffdcf2;fill-opacity:1;stroke-width:0.26458332"
       id="path935"
       inkscape:connector-curvature="0" />
    <path
       d="m 25.451504,65.62416 q 0,0.01895 -0.01326,0.03032 -0.01137,0.0095 -0.03221,0.01326 -0.01895,0.0057 -0.05306,0.0057 -0.03221,0 -0.05495,-0.0057 -0.02274,-0.0038 -0.036,-0.01326 -0.01137,-0.01137 -0.01137,-0.03032 v -0.191375 q -0.115583,0.125057 -0.255798,0.19327 -0.138321,0.06821 -0.28801,0.06821 -0.134531,0 -0.242535,-0.03411 -0.106109,-0.036 -0.180006,-0.100424 -0.0739,-0.06632 -0.113689,-0.159164 -0.03979,-0.09284 -0.03979,-0.208428 0,-0.14211 0.05874,-0.246324 0.05874,-0.106109 0.166743,-0.176217 0.108004,-0.07011 0.259588,-0.104214 0.151584,-0.036 0.337275,-0.036 h 0.272851 v -0.147795 q 0,-0.109899 -0.02274,-0.19327 -0.02274,-0.08527 -0.0739,-0.14211 -0.05116,-0.05684 -0.132636,-0.08527 -0.08148,-0.02842 -0.198954,-0.02842 -0.113688,0 -0.204639,0.02842 -0.09095,0.02653 -0.159163,0.06063 -0.06821,0.03411 -0.113688,0.06253 -0.04358,0.02653 -0.06253,0.02653 -0.01137,0 -0.02084,-0.0038 -0.0095,-0.0038 -0.01705,-0.01326 -0.0057,-0.01137 -0.0095,-0.02653 -0.0019,-0.01705 -0.0019,-0.03979 0,-0.03979 0.0057,-0.06253 0.0057,-0.02463 0.02842,-0.04737 0.02463,-0.02463 0.08527,-0.05684 0.06063,-0.03221 0.138321,-0.05874 0.07958,-0.02842 0.170532,-0.04547 0.09095,-0.01705 0.181901,-0.01705 0.176217,0 0.297484,0.04358 0.121267,0.04169 0.195165,0.121268 0.07579,0.07958 0.108003,0.197059 0.03221,0.115583 0.03221,0.263378 z M 25.226022,64.815079 H 24.91338 q -0.136426,0 -0.238745,0.02463 -0.102319,0.02463 -0.170532,0.072 -0.06821,0.04737 -0.10232,0.113688 -0.03221,0.06632 -0.03221,0.151585 0,0.147794 0.09284,0.23685 0.09474,0.08716 0.265272,0.08716 0.134531,0 0.250114,-0.06821 0.117478,-0.07011 0.248219,-0.214113 z"
       style="font-style:normal;font-variant:normal;font-weight:300;font-stretch:normal;font-size:3.88055563px;font-family:Calibri;-inkscape-font-specification:'Calibri Light';letter-spacing:-0.06614583px;fill:#ffdcf2;fill-opacity:1;stroke-width:0.26458332"
       id="path937"
       inkscape:connector-curvature="0" />
    <path
       d="m 26.798881,65.521841 q 0,0.03979 -0.0076,0.06442 -0.0057,0.02463 -0.02084,0.03979 -0.01326,0.01326 -0.04169,0.02653 -0.02653,0.01137 -0.06253,0.01895 -0.036,0.0095 -0.07579,0.01326 -0.03979,0.0057 -0.07769,0.0057 -0.126951,0 -0.216007,-0.03411 -0.08906,-0.03411 -0.1459,-0.10232 -0.05684,-0.07011 -0.08337,-0.176216 -0.02463,-0.106109 -0.02463,-0.250114 v -1.066774 h -0.255798 q -0.02653,0 -0.04169,-0.02274 -0.01516,-0.02463 -0.01516,-0.072 0,-0.02463 0.0038,-0.04169 0.0038,-0.01895 0.01137,-0.03032 0.0076,-0.01326 0.01705,-0.01895 0.01137,-0.0057 0.02463,-0.0057 h 0.255798 v -0.420646 q 0,-0.01137 0.0038,-0.02084 0.0057,-0.0095 0.01895,-0.01516 0.01326,-0.0076 0.03411,-0.0095 0.02274,-0.0038 0.05495,-0.0038 0.03411,0 0.05495,0.0038 0.02274,0.0019 0.03411,0.0095 0.01326,0.0057 0.01895,0.01516 0.0057,0.0095 0.0057,0.02084 v 0.420646 h 0.4737 q 0.01326,0 0.02274,0.0057 0.01137,0.0057 0.01895,0.01895 0.0076,0.01137 0.01137,0.03032 0.0038,0.01705 0.0038,0.04169 0,0.04737 -0.01705,0.072 -0.01516,0.02274 -0.03979,0.02274 h -0.4737 v 1.036457 q 0,0.195164 0.05495,0.297484 0.05684,0.102319 0.204639,0.102319 0.04547,0 0.08148,-0.0095 0.0379,-0.0095 0.06632,-0.02084 0.02842,-0.01137 0.04737,-0.02084 0.02084,-0.0095 0.036,-0.0095 0.0095,0 0.01705,0.0038 0.0076,0.0038 0.01137,0.01516 0.0057,0.0095 0.0076,0.02653 0.0038,0.01516 0.0038,0.03979 z"
       style="font-style:normal;font-variant:normal;font-weight:300;font-stretch:normal;font-size:3.88055563px;font-family:Calibri;-inkscape-font-specification:'Calibri Light';letter-spacing:-0.06614583px;fill:#ffdcf2;fill-opacity:1;stroke-width:0.26458332"
       id="path939"
       inkscape:connector-curvature="0" />
    <path
       d="m 28.659749,64.748761 q 0,0.204639 -0.05305,0.377066 -0.05305,0.172427 -0.159164,0.299379 -0.104214,0.126951 -0.261482,0.198954 -0.157269,0.07011 -0.365697,0.07011 -0.200849,0 -0.352434,-0.06253 -0.149689,-0.06442 -0.252008,-0.181901 -0.100425,-0.119372 -0.151585,-0.28801 -0.04926,-0.168637 -0.04926,-0.380855 0,-0.204639 0.05116,-0.377066 0.05305,-0.172427 0.157269,-0.297484 0.106109,-0.126952 0.263377,-0.197059 0.157269,-0.07011 0.367592,-0.07011 0.200849,0 0.350539,0.06253 0.151584,0.06253 0.252008,0.181901 0.100425,0.117478 0.151585,0.286116 0.05116,0.168637 0.05116,0.37896 z m -0.238745,0.02084 q 0,-0.1459 -0.02842,-0.278536 -0.02842,-0.132636 -0.09474,-0.233061 -0.06632,-0.102319 -0.178111,-0.161058 -0.111794,-0.06063 -0.278536,-0.06063 -0.153479,0 -0.265273,0.05495 -0.111793,0.05495 -0.183796,0.153479 -0.07011,0.09664 -0.104214,0.229271 -0.03411,0.132636 -0.03411,0.286115 0,0.147795 0.02842,0.282326 0.02842,0.132636 0.09474,0.23306 0.06632,0.100425 0.178111,0.159164 0.111794,0.05874 0.278536,0.05874 0.153479,0 0.265273,-0.05495 0.111793,-0.05495 0.181901,-0.151584 0.072,-0.09663 0.106109,-0.229271 0.03411,-0.132636 0.03411,-0.28801 z"
       style="font-style:normal;font-variant:normal;font-weight:300;font-stretch:normal;font-size:3.88055563px;font-family:Calibri;-inkscape-font-specification:'Calibri Light';letter-spacing:-0.06614583px;fill:#ffdcf2;fill-opacity:1;stroke-width:0.26458332"
       id="path941"
       inkscape:connector-curvature="0" />
    <path
       d="m 30.050708,63.996525 q 0,0.02842 -0.0019,0.04926 -0.0019,0.01895 -0.0076,0.03221 -0.0038,0.01137 -0.01137,0.01895 -0.0057,0.0057 -0.01705,0.0057 -0.01705,0 -0.03979,-0.0076 -0.02274,-0.0095 -0.05306,-0.01895 -0.03032,-0.0095 -0.06632,-0.01705 -0.036,-0.0095 -0.07958,-0.0095 -0.05116,0 -0.100424,0.02274 -0.04927,0.02084 -0.104214,0.07011 -0.05305,0.04737 -0.113688,0.126952 -0.05874,0.07958 -0.130742,0.195165 v 1.159619 q 0,0.01137 -0.0057,0.02084 -0.0057,0.0095 -0.01895,0.01516 -0.01137,0.0057 -0.03411,0.0095 -0.02084,0.0038 -0.05495,0.0038 -0.03221,0 -0.05495,-0.0038 -0.02084,-0.0038 -0.03411,-0.0095 -0.01326,-0.0057 -0.01895,-0.01516 -0.0038,-0.0095 -0.0038,-0.02084 v -1.714796 q 0,-0.01137 0.0038,-0.02084 0.0057,-0.0095 0.01895,-0.01516 0.01326,-0.0076 0.03221,-0.0095 0.02084,-0.0038 0.05305,-0.0038 0.03221,0 0.05306,0.0038 0.02084,0.0019 0.03221,0.0095 0.01137,0.0057 0.01516,0.01516 0.0057,0.0095 0.0057,0.02084 v 0.270956 q 0.0739,-0.108003 0.136426,-0.174321 0.06253,-0.06632 0.119373,-0.10232 0.05684,-0.0379 0.109898,-0.05116 0.05495,-0.01326 0.111794,-0.01326 0.02463,0 0.05684,0.0038 0.03221,0.0019 0.06821,0.0095 0.0379,0.0076 0.06632,0.01895 0.03032,0.0095 0.04169,0.01895 0.01137,0.0076 0.01516,0.01516 0.0038,0.0057 0.0057,0.01705 0.0038,0.0095 0.0038,0.02842 0.0019,0.01705 0.0019,0.04548 z"
       style="font-style:normal;font-variant:normal;font-weight:300;font-stretch:normal;font-size:3.88055563px;font-family:Calibri;-inkscape-font-specification:'Calibri Light';letter-spacing:-0.06614583px;fill:#ffdcf2;fill-opacity:1;stroke-width:0.26458332"
       id="path943"
       inkscape:connector-curvature="0" />
  </g>
</svg>
